<?xml version="1.0" encoding="utf-8"?>
<!-- Generator: Adobe Illustrator 23.0.0, SVG Export Plug-In . SVG Version: 6.00 Build 0)  -->
<svg version="1.1" id="e6231ec2-a9f6-4575-8eca-cc3c0040981d"
	 xmlns="http://www.w3.org/2000/svg" xmlns:xlink="http://www.w3.org/1999/xlink" x="0px" y="0px" viewBox="0 0 949 631.6"
	 style="enable-background:new 0 0 949 631.6;" xml:space="preserve">
<style type="text/css">
	.st0{fill:#E6E6E6;}
	.st1{fill:#3F3D56;}
	.st2{fill:#6C63FF;}
	.st3{fill:#FFB8B8;}
	.st4{fill:#2F2E41;}
	.st5{fill:#D0CDE1;}
</style>
<title>manage_chats</title>
<path class="st0" d="M549.5,110.9c-2-0.1-4-0.1-6-0.1v-2c2,0,4,0,6,0.1L549.5,110.9z"/>
<path class="st0" d="M543.5,464.8c-2.7,0-5.4-0.1-8.1-0.2l0.1-2c4,0.2,8.1,0.2,12.1,0.1l0,2C546.3,464.8,544.9,464.8,543.5,464.8z
	 M559.8,464.1l-0.2-2c4-0.4,8-0.9,12-1.5l0.3,2C567.9,463.2,563.9,463.7,559.8,464.1z M523.3,463.7c-4-0.5-8.1-1.1-12.1-1.8l0.4-2
	c3.9,0.7,7.9,1.3,11.9,1.8L523.3,463.7z M583.9,460.2l-0.5-1.9c3.9-0.9,7.8-2,11.6-3.1l0.6,1.9C591.8,458.2,587.8,459.3,583.9,460.2
	z M499.3,459.3c-3.9-1-7.9-2.2-11.7-3.4l0.6-1.9c3.8,1.3,7.7,2.4,11.6,3.4L499.3,459.3z M607.2,453.1l-0.7-1.9
	c3.7-1.4,7.5-3,11.1-4.7l0.8,1.8C614.8,450,611,451.6,607.2,453.1L607.2,453.1z M476.1,451.6c-3.8-1.5-7.5-3.2-11.1-5l0.9-1.8
	c3.6,1.8,7.3,3.4,11,5L476.1,451.6z M629.3,442.8l-1-1.8c3.5-1.9,7-4,10.4-6.2l1.1,1.7C636.4,438.7,632.8,440.8,629.3,442.8z
	 M454.2,440.8c-3.5-2-7-4.2-10.3-6.5l1.1-1.7c3.3,2.2,6.8,4.4,10.2,6.4L454.2,440.8z M649.8,429.6l-1.2-1.6c3.2-2.4,6.4-4.9,9.4-7.5
	l1.3,1.5C656.2,424.6,653,427.2,649.8,429.6L649.8,429.6z M434,427.2c-3.2-2.5-6.3-5.1-9.4-7.8l1.3-1.5c3,2.7,6.1,5.3,9.3,7.7
	L434,427.2z M668.3,413.7l-1.4-1.4c2.9-2.8,5.7-5.8,8.3-8.7l1.5,1.3C674,407.9,671.2,410.9,668.3,413.7z M415.9,410.9
	c-2.8-2.9-5.6-5.9-8.2-9l1.5-1.3c2.6,3.1,5.3,6.1,8.1,8.9L415.9,410.9z M684.5,395.5l-1.6-1.2c2.4-3.2,4.8-6.5,7-9.8l1.7,1.1
	C689.4,388.9,687,392.3,684.5,395.5L684.5,395.5z M400.1,392.3c-2.4-3.3-4.7-6.6-6.9-10.1l1.7-1.1c2.1,3.4,4.4,6.7,6.8,9.9
	L400.1,392.3z M698,375.2l-1.7-1c2-3.5,3.9-7.1,5.6-10.7l1.8,0.9C702,368,700.1,371.7,698,375.2L698,375.2z M387,371.7
	c-1.9-3.6-3.8-7.2-5.5-10.9l1.8-0.8c1.7,3.6,3.5,7.3,5.4,10.8L387,371.7z M708.7,353.2l-1.9-0.7c1.5-3.7,2.9-7.5,4.1-11.4l1.9,0.6
	C711.6,345.6,710.2,349.5,708.7,353.2z M376.9,349.6c-1.4-3.8-2.7-7.7-3.9-11.6l1.9-0.6c1.1,3.8,2.4,7.7,3.9,11.4L376.9,349.6z
	 M716.2,330l-1.9-0.5c1-3.9,1.8-7.9,2.5-11.8l2,0.3C718.1,322.1,717.2,326.1,716.2,330z M369.9,326.2c-0.9-3.9-1.7-8-2.3-12l2-0.3
	c0.6,4,1.4,7.9,2.3,11.8L369.9,326.2z M720.5,306l-2-0.2c0.4-4,0.7-8,0.9-12l2,0.1C721.2,297.9,720.9,302,720.5,306z M366.1,302.1
	c-0.3-4-0.6-8.1-0.6-12.2l2,0c0.1,4,0.3,8.1,0.6,12L366.1,302.1z M719.4,281.7c-0.1-4-0.4-8.1-0.7-12l2-0.2c0.4,4,0.6,8.1,0.8,12.2
	L719.4,281.7z M717.1,257.7c-0.7-4-1.5-7.9-2.4-11.8l1.9-0.5c0.9,3.9,1.7,8,2.4,12L717.1,257.7z M711.5,234.3
	c-1.2-3.8-2.5-7.6-4-11.4l1.9-0.7c1.5,3.8,2.8,7.6,4,11.5L711.5,234.3z M702.8,211.8c-1.7-3.6-3.6-7.2-5.5-10.7l1.7-1
	c2,3.5,3.8,7.2,5.6,10.8L702.8,211.8z M691,190.8c-2.2-3.4-4.5-6.7-6.9-9.9l1.6-1.2c2.4,3.2,4.8,6.6,7,10L691,190.8z M676.5,171.5
	c-2.6-3-5.4-6-8.2-8.8l1.4-1.4c2.9,2.9,5.6,5.9,8.3,8.9L676.5,171.5z M659.5,154.4c-3-2.6-6.2-5.2-9.3-7.6l1.2-1.6
	c3.2,2.5,6.4,5.1,9.4,7.7L659.5,154.4z M640.3,139.8c-3.3-2.2-6.8-4.3-10.3-6.3l1-1.7c3.5,2,7,4.1,10.4,6.4L640.3,139.8z
	 M619.3,127.9c-3.6-1.7-7.3-3.4-11.1-4.8l0.7-1.9c3.8,1.5,7.5,3.1,11.2,4.9L619.3,127.9z M596.9,119c-3.8-1.2-7.7-2.3-11.6-3.3
	l0.5-1.9c3.9,1,7.9,2.1,11.7,3.3L596.9,119z M573.5,113.3c-3.9-0.7-8-1.2-12-1.6l0.2-2c4,0.4,8.1,1,12.1,1.6L573.5,113.3z"/>
<path class="st0" d="M367.7,277.5l-2-0.1c0.1-2,0.2-4,0.4-6l2,0.2C368,273.5,367.8,275.5,367.7,277.5z"/>
<polygon class="st1" points="696,629.6 191,629.6 191,404.6 443.5,518.1 696,404.6 "/>
<polygon class="st2" points="191,404.6 696,404.6 444,534.6 "/>
<circle class="st0" cx="444" cy="534.6" r="21"/>
<path class="st1" d="M66.1,629.1c-0.2-0.4-5.6-9.4-7.5-28.2c-1.7-17.2-0.6-46.2,14.4-86.7c28.5-76.7-6.6-138.5-6.9-139.1l1.7-1
	c0.1,0.2,9.1,15.9,14.5,41c7.1,33.3,4.5,67.9-7.4,99.8c-28.5,76.5-7.3,112.8-7.1,113.1L66.1,629.1z"/>
<circle class="st2" cx="55" cy="357.6" r="13"/>
<circle class="st2" cx="96" cy="405.6" r="13"/>
<circle class="st2" cx="68" cy="437.6" r="13"/>
<circle class="st2" cx="102" cy="464.6" r="13"/>
<circle class="st2" cx="58" cy="506.6" r="13"/>
<path class="st1" d="M74,629.6c0,0-13-32,26-56L74,629.6z"/>
<path class="st1" d="M58,629c0,0-5.9-34-51.7-33.7L58,629z"/>
<path class="st1" d="M278.5,138.1c0-27.4,9.1-54.1,26-75.7C237.3,52.5,174.8,99,164.9,166.2s36.5,129.7,103.8,139.6
	c17.3,2.6,35,1.4,51.8-3.4c23.3,10.1,48.8,14.2,74,11.7l-39.3-28c10.7-7.3,20.3-16.1,28.2-26.4C323.2,250.8,278.5,199,278.5,138.1z"
	/>
<path class="st2" d="M557.5,125.1c0-67.9-55.1-123-123-123c-37.9,0-73.7,17.5-97,47.3c67.2,10,113.6,72.5,103.6,139.7
	c-3.1,21-11.6,40.9-24.7,57.7c17.4,2.6,35.1,1.4,52-3.4c23.3,10.1,48.8,14.2,74,11.7l-39.3-28C537.2,204.3,557.5,166,557.5,125.1z"
	/>
<path class="st0" d="M320.5,55.4c-41.8,53.6-32.3,130.9,21.3,172.7c16.8,13.1,36.6,21.6,57.6,24.7c41.8-53.5,32.3-130.8-21.3-172.6
	C361.4,67,341.6,58.5,320.5,55.4z"/>
<rect y="629.6" class="st1" width="949" height="2"/>
<path class="st3" d="M806.1,160.5l-5.9,39.5l-67.8,45.9c0,0-35.7,17.1-33.4,27.7c2,9.5,29.5,8.3,38.2-6.3l81.1-36.9l27.1-53.7
	L806.1,160.5z"/>
<polygon class="st3" points="806.5,558.6 809.5,600.6 838.5,598.6 833.5,558.6 "/>
<path class="st4" d="M814.5,587.6c0,0-4-15-8-14l-6,11c0,0-27,25-35,26c0,0-26,8,0,20h30c0,0,20-1,24,0s27,1,28-5s-3-18-3-18
	s-3.7-29.5-7.8-23.8c-2.2,3.1-4.6,6-7.2,8.8L814.5,587.6z"/>
<polygon class="st3" points="881.5,559.1 884.5,601.1 913.5,599.1 908.5,559.1 "/>
<path class="st4" d="M889.5,588.1c0,0-4-15-8-14l-6,11c0,0-27,25-35,26c0,0-26,8,0,20h30c0,0,20-2,24-1s27,1,28-5s-3-17-3-17
	s-3.7-29.5-7.8-23.8c-2.2,3.1-4.6,6-7.2,8.8L889.5,588.1z"/>
<path class="st4" d="M767.5,301.1l-5,7v14l32,119l6,26c0,0,0,100,6,100s33,3,33-3s-2-142-2-142l27,51c0,0,12,90,16,91s32,0,34-6
	l-6-57c0,0,1-64-16-78c0,0-3-17-6-24s-8-11-5-16s-4-60-4-60s2-17-2-22S767.5,301.1,767.5,301.1z"/>
<circle class="st3" cx="831.5" cy="43.1" r="31"/>
<path class="st3" d="M851,61.6l-2,20l8,7l-51,24c12.6-21.5,16.3-41,10-55L851,61.6z"/>
<path class="st5" d="M816,91.6c0,0-8,16,2,12l31-22c0,0,34,13,46,28l-10,106l-8,75c0,0,5,9,4,10s-2-1-1,2s4,0,1,3s-6,0-3,3s0,4,0,4
	s-4-24-39-6s-50,23-76,1l30-114l2.4-43c0.8-14.4,3.4-28.6,7.6-42.3c2.3-7.4,6.3-14.7,13-18.7V91.6z"/>
<path class="st3" d="M869.5,179.1l15,37l-35,74c0,0-8,9-3,20c2.6,5.9,5.6,11.6,9,17c0,0,9-4,9-21l51-73l-4-60L869.5,179.1z"/>
<path class="st5" d="M867.5,113.1c0,0-14,14-8,36s11,39,11,39s24-18,44-7c0,0-3-65-20-71S867.5,113.1,867.5,113.1z"/>
<path class="st1" d="M700.2,239.5L700.2,239.5l18.5-4.3c1.8-0.4,3.7,0.5,4.5,2.2l18.9,39.2c0.8,1.6,0.1,3.6-1.5,4.3
	c-0.2,0.1-0.3,0.1-0.5,0.2l-18.8,5.3c-2.1,0.6-4.3-0.5-5.1-2.4l-12.1-28l-0.4,0.2l-2.3-5.3l0.4-0.2l-3.4-7.8c-0.5-1.3,0-2.7,1.3-3.3
	C699.9,239.6,700,239.5,700.2,239.5z"/>
<path class="st2" d="M716.4,236.7l2.2-0.5c1.3-0.3,2.6,0.3,3.1,1.5l18.5,39c0.4,0.9,0,1.9-0.8,2.3c-0.1,0-0.2,0.1-0.2,0.1l-18.6,5.6
	c-1.1,0.3-2.2-0.2-2.7-1.3l-17.5-40.6c-0.4-1,0-2.1,1-2.6c0.1,0,0.2-0.1,0.3-0.1l2-0.5c0.4-0.1,0.8,0.1,1,0.5l0,0
	c0.2,0.3,0.5,0.5,0.9,0.4l9.7-2.2C716,238.1,716.5,237.4,716.4,236.7L716.4,236.7z"/>
<path class="st4" d="M805.8,9.3l-6-2.2c0,0,12.5-12.5,29.9-11.4l-4.9-4.9c0,0,12-4.3,22.8,7.1c5.7,6,12.3,13.1,16.5,21h6.4l-2.7,5.3
	l9.4,5.3l-9.6-1c0.9,4.6,0.6,9.4-0.9,13.8l-2.2,6c0,0-8.7-17.4-8.7-19.6v5.4c0,0-6-4.9-6-8.2l-3.3,3.8l-1.6-6l-20.1,6l3.3-4.9
	l-12.5,1.6l4.9-6c0,0-14.1,7.1-14.7,13c-0.5,6-7.6,13.6-7.6,13.6l-3.3-5.4C794.9,41.9,790,17.4,805.8,9.3z"/>
</svg>
