<?xml version="1.0" encoding="utf-8"?>
<!-- Generator: Adobe Illustrator 23.0.0, SVG Export Plug-In . SVG Version: 6.00 Build 0)  -->
<svg version="1.1" id="fa866d1a-a72e-47a8-bc1b-ecf7e26c8ac2"
	 xmlns="http://www.w3.org/2000/svg" xmlns:xlink="http://www.w3.org/1999/xlink" x="0px" y="0px" viewBox="0 0 1180.1 761.3"
	 style="enable-background:new 0 0 1180.1 761.3;" xml:space="preserve">
<style type="text/css">
	.st0{fill:#3F3D56;}
	.st1{fill:#6C63FF;}
	.st2{fill:#FFB8B8;}
	.st3{fill:#2F2E41;}
	.st4{fill:#D0CDE1;}
	.st5{fill:none;stroke:#3F3D56;stroke-miterlimit:10;}
	.st6{fill:#F1F1F1;}
	.st7{fill:#FF6584;}
</style>
<title>5552</title>
<rect x="167.8" y="515.9" class="st0" width="267.1" height="1.9"/>
<rect x="991.8" y="515.9" class="st0" width="158.4" height="1.9"/>
<rect x="239.1" y="552.4" class="st0" width="219.3" height="1.9"/>
<rect x="973" y="552.4" class="st0" width="113.4" height="1.9"/>
<rect x="861.5" y="652.7" class="st0" width="152.8" height="1.9"/>
<rect x="167.8" y="676.2" class="st0" width="431.2" height="1.9"/>
<circle class="st0" cx="303.7" cy="516.8" r="26.2"/>
<circle class="st1" cx="456.5" cy="678" r="17.8"/>
<circle class="st1" cx="1032.1" cy="552.4" r="17.8"/>
<path class="st0" d="M1115.5,624.6h-24.4v-24.4h24.4V624.6z M1093,622.7h20.6v-20.6H1093V622.7z"/>
<path class="st1" d="M321,590.7c0,63-37.4,85.1-83.6,85.1c-1.1,0-2.1,0-3.2,0c-2.1,0-4.3-0.1-6.4-0.3c-41.7-2.9-74.1-26.1-74.2-84.7
	c0-60.7,77.5-137.3,83.3-142.9c0,0,0,0,0,0c0.2-0.2,0.3-0.3,0.3-0.3S321,527.7,321,590.7z"/>
<path class="st0" d="M234.3,666.2l30.6-42.8l-30.7,47.5l-0.1,4.9c-2.1,0-4.3-0.1-6.4-0.3l3.3-63.1l0-0.5l0.1-0.1l0.3-6l-30.8-47.6
	l30.9,43.1l0.1,1.3l2.5-47.6l-26.4-49.2l26.7,40.8l2.5-98.8l0-0.3l0,0.3l-0.4,77.9l26.2-30.9l-26.3,37.6l-0.7,42.7l24.5-41
	l-24.6,47.2l-0.4,23.7l35.5-57l-35.6,65.3L234.3,666.2z"/>
<polygon class="st2" points="59.6,646.4 58.6,679.4 74.6,679.4 88.6,666.4 80.6,640.4 "/>
<polygon class="st2" points="117.6,674.4 117.6,732.4 149.6,727.4 147.6,674.4 "/>
<path class="st3" d="M39.6,422.4l8,118c0,0-4,14-1,18s3,4,1,8s-6,5-3,8c1.6,1.5,2.9,3.1,4,5l10,77c0,0-6,16,28-8l2-65c0,0-4-13,0-15
	s6-2,5-6s0-4,0-7s2-4,2-7s-2-10-2-10l14-65l11,73c0,0-5,16,0,22l-4,114c0,0,28,14,40,0l8-91c0,0,3-17,2-23s-4-5-2-9s2-16,2-16l8-70
	l-1-102h-127L39.6,422.4z"/>
<path class="st3" d="M74.6,669.4l-18-6c0,0-19,36-21,37s-17,29,4,28s38-28,38-28s22-25,19-33S84.8,654,84.8,654
	S81.6,675.4,74.6,669.4z"/>
<path class="st3" d="M121.6,722.4c0,0-4-12-6-10s-14,35-5,36s40,7,44,11s44,2,41-11s-27-20-27-20l-19.8-21.5c0,0-22.2,2.5-20.2,8.5
	C128.6,715.4,128.6,723.4,121.6,722.4z"/>
<circle class="st2" cx="129.1" cy="154.9" r="32"/>
<path class="st2" d="M106.6,170.4c0,0-1,32-10,40s24,34,52,18c0,0-13-28,0-51L106.6,170.4z"/>
<path class="st4" d="M150.6,218.4h-5.4c0,0-33.1,11.2-45.4-12.4l-18.2,0.4l-31,179c0,0,43-5,55,0s69-9,69-9L150.6,218.4z"/>
<circle class="st5" cx="91.1" cy="337.9" r="3"/>
<circle class="st5" cx="82.1" cy="375.9" r="3"/>
<path class="st3" d="M106.7,124.6l-5.3-2.1c0,0,11.1-12.2,26.5-11.1l-4.3-4.8c0,0,10.6-4.2,20.2,6.9c5.1,5.9,10.9,12.7,14.6,20.5
	h5.7l-2.4,5.2l8.3,5.2l-8.5-0.9c0.8,4.5,0.5,9.1-0.8,13.5l0.2,4.1c0,0-9.9-15.3-9.9-17.4v5.3c0,0-5.3-4.8-5.3-8l-2.9,3.7l-1.4-5.8
	l-17.8,5.8l2.9-4.8l-11.1,1.6l4.3-5.8c0,0-12.5,6.9-13,12.7s-6.7,13.3-6.7,13.3l-2.9-5.3C97.1,156.4,92.7,132.5,106.7,124.6z"/>
<path class="st0" d="M104.1,192.6l-18.5,9.8l-37,4c0,0,10,123-7,139c0,0-58,67-37,78s59,33,71,16S114.5,218.7,104.1,192.6z"/>
<path class="st0" d="M143.1,206.4c0,0,45.5,23,46.5,25s-15,89-15,89s6,129-2,131s-18-101-18-101S141.5,213.4,143.1,206.4z"/>
<path class="st2" d="M8.6,416.4c0,0-9,56,16,53s4-55,4-55L8.6,416.4z"/>
<path class="st2" d="M187.6,373.4c0,0-20.9-11.3-28.4,2.8s31.4,37.2,39.4,12.2C198.6,388.4,195.6,371.4,187.6,373.4z"/>
<path class="st0" d="M181.6,230.4h8c0,0,3,1,5,13s11,82,11,82s8,8,6,12s-4,2-3,6c0.6,2.3,0.9,4.6,1,7l-16,54c0,0,9-27-12-32
	c0,0-4-5-2-7s1-3,1-4s-1-1,0-5c0.6-2.6,1-5.3,1-8c0,0-4-2-3-4s0-19,0-19l-14-25L181.6,230.4z"/>
<path class="st0" d="M53.6,209.4l-5-3c0,0-18,10-23,49s-17,78-17,78l-5.7,88.8l27.7-2.8l15-97l17-49L53.6,209.4z"/>
<rect x="396.9" y="58.1" transform="matrix(0.2876 -0.9578 0.9578 0.2876 124.1844 817.1726)" class="st6" width="429" height="534"/>
<rect x="562.2" y="46.2" class="st0" width="554" height="226"/>
<path class="st7" d="M641.8,130.4h-41.3c-2.8-16.3-2.8-33,0-49.2h41.3C637.1,97.2,637.1,114.3,641.8,130.4z"/>
<path class="st1" d="M677.5,151.3h41.3c2.8-16.3,2.8-33,0-49.2h-41.3C682.2,118.2,682.2,135.2,677.5,151.3z"/>
<path class="st6" d="M769.4,79.1c6.8,34.2,8.7,69.1,5.7,103.9c-0.8,9-1.9,18-3.4,27c-0.7,4.1-1.4,8.1-2.2,12.2
	c-0.4,2.3-1.4,5.2,0.1,7.4c2.8,4.3,12.6,3.1,16.9,3.3c8.9,0.3,17.9,0.3,26.8,0.5l26.9,0.5l13,0.2c4.4,0.1,9.2,0.8,13.6,0.2
	c5.8-0.7,4.4-6.8,4.3-11.3c-0.2-8.9-0.4-17.7-0.7-26.6c-1.2-35.1-3.4-70.2-6.6-105.2c-0.4-4.5-0.2-9.8-1.4-14.1
	c-0.5-1.7-1-2.3-2.9-2.6c-4.3-0.7-9.5,0-13.9,0.1L831,74.7l-59.8,0.4c-0.8,0-1.5,0.7-1.4,1.6c0,0.8,0.7,1.4,1.4,1.4l49-0.3l21.6-0.1
	l11.8-0.1c2.4,0,4.7-0.7,6.2,1.9c1,1.7,0.6,5.9,0.7,7.8c2.9,31.4,5,62.8,6.4,94.3c0.3,7.9,0.6,15.8,0.8,23.6
	c0.1,3.3,0.2,6.6,0.3,9.8c0,2,0.1,3.9,0.1,5.9c0,2,0.9,6,0.1,7.9c-1.6,4-8.6,2.3-12,2.2l-12-0.2l-23.9-0.4l-23.9-0.4
	c-4-0.1-7.9-0.1-11.9-0.3c-1.3-0.1-2.6-0.1-3.9-0.2c-3.9-0.3-8.1,0.6-8.6-4.7c-0.3-3.3,1.5-7.9,2.1-11.2c0.6-3.8,1.2-7.5,1.7-11.3
	c1-7.1,1.8-14.1,2.3-21.2c2.7-34.4,0.7-69-6-102.8C771.9,76.4,769,77.2,769.4,79.1L769.4,79.1z"/>
<path class="st6" d="M966.4,79.1c6.8,34.2,8.7,69.1,5.7,103.9c-0.8,9-1.9,18-3.4,27c-0.7,4.1-1.4,8.1-2.2,12.2
	c-0.4,2.3-1.4,5.2,0.1,7.4c2.8,4.3,12.6,3.1,16.9,3.3c8.9,0.3,17.9,0.3,26.8,0.5l26.9,0.5l13,0.2c4.4,0.1,9.2,0.8,13.6,0.2
	c5.8-0.7,4.4-6.8,4.3-11.3c-0.2-8.9-0.4-17.7-0.7-26.6c-1.2-35.1-3.4-70.2-6.6-105.2c-0.4-4.5-0.2-9.8-1.4-14.1
	c-0.5-1.7-1-2.3-2.9-2.6c-4.3-0.7-9.5,0-13.9,0.1l-14.7,0.1l-59.8,0.4c-0.8,0-1.5,0.7-1.4,1.6c0,0.8,0.7,1.4,1.4,1.4l49-0.3
	l21.6-0.1l11.8-0.1c2.4,0,4.7-0.7,6.2,1.9c1,1.7,0.6,5.9,0.7,7.8c2.9,31.4,5,62.8,6.4,94.3c0.3,7.9,0.6,15.8,0.8,23.6
	c0.1,3.3,0.2,6.6,0.3,9.8c0,2,0.1,3.9,0.1,5.9c0,2,0.9,6,0.1,7.9c-1.6,4-8.6,2.3-12,2.2l-12-0.2l-23.9-0.4l-23.9-0.4
	c-4-0.1-7.9-0.1-11.9-0.3c-1.3-0.1-2.6-0.1-3.9-0.2c-3.9-0.3-8.1,0.6-8.6-4.7c-0.3-3.3,1.5-7.9,2.1-11.2c0.6-3.8,1.2-7.5,1.7-11.3
	c1-7.1,1.8-14.1,2.3-21.2c2.7-34.4,0.7-69-6-102.8C968.9,76.4,966,77.2,966.4,79.1L966.4,79.1z"/>
<path class="st6" d="M783.2,86.8H803c0.8,0,1.5-0.7,1.4-1.6c0-0.8-0.7-1.4-1.4-1.4h-19.8c-0.8,0-1.5,0.7-1.4,1.6
	C781.7,86.1,782.4,86.8,783.2,86.8z"/>
<path class="st6" d="M783.2,93.6l18.7-0.7c1.9-0.1,1.9-3.1,0-3l-18.7,0.7C781.2,90.6,781.2,93.6,783.2,93.6z"/>
<path class="st6" d="M783.2,99.3h18.1c0.8,0,1.5-0.7,1.4-1.6c0-0.8-0.7-1.4-1.4-1.4h-18.1c-0.8,0-1.5,0.7-1.4,1.6
	C781.7,98.6,782.4,99.3,783.2,99.3z"/>
<path class="st6" d="M843.3,85.4c-4.1-2.1-7.8,1.4-8.3,5.4c-0.3,2-0.3,4.6,0.9,6.3c1.3,1.7,3.7,2.4,5.7,2.5c3.9,0.2,8-1.9,8.9-5.9
	c0.9-3.6-1-7.4-4.6-8.7c-1.8-0.6-2.6,2.3-0.8,2.9c1.7,0.7,2.8,2.5,2.6,4.4c-0.2,2.1-1.9,3.9-4,4.2c-2.5,0.6-5.4,0-5.9-2.8
	c-0.4-2.1,0.8-7.2,3.9-5.6C843.5,88.9,845,86.3,843.3,85.4L843.3,85.4z"/>
<path class="st6" d="M980.2,86.8h19.8c0.8,0,1.5-0.7,1.4-1.6c0-0.8-0.7-1.4-1.4-1.4h-19.8c-0.8,0-1.5,0.7-1.4,1.6
	C978.7,86.1,979.4,86.8,980.2,86.8z"/>
<path class="st6" d="M980.2,93.6l18.7-0.7c1.9-0.1,1.9-3.1,0-3l-18.7,0.7C978.2,90.6,978.2,93.6,980.2,93.6z"/>
<path class="st6" d="M980.2,99.3h18.1c0.8,0,1.5-0.7,1.4-1.6c0-0.8-0.7-1.4-1.4-1.4h-18.1c-0.8,0-1.5,0.7-1.4,1.6
	C978.7,98.6,979.4,99.3,980.2,99.3z"/>
<path class="st6" d="M1040.3,85.4c-4.1-2.1-7.8,1.4-8.3,5.4c-0.3,2-0.3,4.6,0.9,6.3c1.3,1.7,3.7,2.4,5.7,2.5c3.9,0.2,8-1.9,8.9-5.9
	c0.9-3.6-1-7.4-4.6-8.7c-1.8-0.6-2.6,2.3-0.8,2.9c1.7,0.7,2.8,2.5,2.6,4.4c-0.2,2.1-1.9,3.9-4,4.2c-2.5,0.6-5.4,0-5.9-2.8
	c-0.4-2.1,0.8-7.2,3.9-5.6C1040.5,88.9,1042,86.3,1040.3,85.4L1040.3,85.4z"/>
<path class="st6" d="M787.1,115.7c21.8,0.2,43.6-0.4,65.4-2l-1.4-1.9c-3.6,9-3.5,18.6-3,28.1c0.1,2.4,0.9,5.6,0.4,8
	c-0.6,3-3.3,2.3-6,2.4c-5.9,0.2-11.7,0.3-17.6,0.4c-5.5,0.1-11.1,0.1-16.6,0.1c-2.6,0-5.2,0-7.8-0.1c-3.1,0-6.5,0.9-7.3-2.7
	c-0.5-2.3,0-5.3,0-7.6l0-8.5l0-17.1c0-0.8-0.7-1.5-1.6-1.4c-0.8,0-1.4,0.7-1.4,1.4l0,20.9l0,9.5c0,1.9-0.4,4.2,0.3,6
	c1.6,4.1,8.6,2.6,12,2.6c6.8,0.1,13.7,0.1,20.5,0c6.8-0.1,13.7-0.2,20.5-0.5c2.9-0.1,7,0.6,7.9-3.1c0.6-2.5-0.1-5.9-0.2-8.5
	c-0.2-3-0.3-5.9-0.4-8.9c-0.1-6.9,0.6-13.7,3.2-20.2c0.2-0.8-0.3-1.6-1.1-1.8c-0.1,0-0.3-0.1-0.4-0.1c-21.8,1.6-43.6,2.3-65.4,2
	c-0.8,0-1.5,0.7-1.4,1.6C785.7,115.1,786.3,115.7,787.1,115.7L787.1,115.7z"/>
<path class="st6" d="M793.4,117.4c9.3,3.3,18.5,7.2,27.3,11.8c7.9,4.1,18.3,8.5,23.7,15.9c1.1,1.5,3.7,0,2.6-1.5
	c-5.6-7.5-15.1-11.8-23.2-16.1c-9.5-5-19.4-9.3-29.6-12.9C792.3,113.8,791.5,116.7,793.4,117.4L793.4,117.4z"/>
<path class="st6" d="M852,112c-9.9,4.2-18.3,12.4-27.2,18.5c-9.6,6.6-19.5,12.6-29.6,18.3c-1.7,0.9-0.2,3.5,1.5,2.6
	c10.1-5.7,20-11.8,29.6-18.3c8.9-6.1,17.3-14.2,27.2-18.5C855.3,113.9,853.8,111.3,852,112L852,112z"/>
<path class="st6" d="M984.1,115.7c21.8,0.2,43.6-0.4,65.4-2l-1.4-1.9c-3.6,9-3.5,18.6-3,28.1c0.1,2.4,0.9,5.6,0.4,8
	c-0.6,3-3.3,2.3-6,2.4c-5.9,0.2-11.7,0.3-17.6,0.4c-5.5,0.1-11.1,0.1-16.6,0.1c-2.6,0-5.2,0-7.8-0.1c-3.1,0-6.5,0.9-7.3-2.7
	c-0.5-2.3,0-5.3,0-7.6l0-8.5l0-17.1c0-0.8-0.7-1.5-1.6-1.4c-0.8,0-1.4,0.7-1.4,1.4l0,20.9l0,9.5c0,1.9-0.4,4.2,0.3,6
	c1.6,4.1,8.6,2.6,12,2.6c6.8,0.1,13.7,0.1,20.5,0c6.8-0.1,13.7-0.2,20.5-0.5c2.9-0.1,7,0.6,7.9-3.1c0.6-2.5-0.1-5.9-0.2-8.5
	c-0.2-3-0.3-5.9-0.4-8.9c-0.1-6.9,0.6-13.7,3.2-20.2c0.2-0.8-0.3-1.6-1.1-1.8c-0.1,0-0.3-0.1-0.4-0.1c-21.8,1.6-43.6,2.3-65.4,2
	c-0.8,0-1.5,0.7-1.4,1.6C982.7,115.1,983.3,115.7,984.1,115.7L984.1,115.7z"/>
<path class="st6" d="M990.4,117.4c9.3,3.3,18.5,7.2,27.3,11.8c7.9,4.1,18.3,8.5,23.7,15.9c1.1,1.5,3.7,0,2.6-1.5
	c-5.6-7.5-15.1-11.8-23.2-16.1c-9.5-5-19.4-9.3-29.6-12.9C989.3,113.8,988.5,116.7,990.4,117.4L990.4,117.4z"/>
<path class="st6" d="M1049,112c-9.9,4.2-18.3,12.4-27.2,18.5c-9.6,6.6-19.5,12.6-29.6,18.3c-1.7,0.9-0.2,3.5,1.5,2.6
	c10.1-5.7,20-11.8,29.6-18.3c8.9-6.1,17.3-14.2,27.2-18.5C1052.3,113.9,1050.8,111.3,1049,112L1049,112z"/>
<path class="st6" d="M984.1,175.7c21.8,0.2,43.6-0.4,65.4-2l-1.4-1.9c-3.6,9-3.5,18.6-3,28.1c0.1,2.4,0.9,5.6,0.4,8
	c-0.6,3-3.3,2.3-6,2.4c-5.9,0.2-11.7,0.3-17.6,0.4c-5.5,0.1-11.1,0.1-16.6,0.1c-2.6,0-5.2,0-7.8-0.1c-3.1,0-6.5,0.9-7.3-2.7
	c-0.5-2.3,0-5.3,0-7.6l0-8.5l0-17.1c0-0.8-0.7-1.5-1.6-1.4c-0.8,0-1.4,0.7-1.4,1.4l0,20.9l0,9.5c0,1.9-0.4,4.2,0.3,6
	c1.6,4.1,8.6,2.6,12,2.6c6.8,0.1,13.7,0.1,20.5,0c6.8-0.1,13.7-0.2,20.5-0.5c2.9-0.1,7,0.6,7.9-3.1c0.6-2.5-0.1-5.9-0.2-8.5
	c-0.2-3-0.3-5.9-0.4-8.9c-0.1-6.9,0.6-13.7,3.2-20.2c0.2-0.8-0.3-1.6-1.1-1.8c-0.1,0-0.3-0.1-0.4-0.1c-21.8,1.6-43.6,2.3-65.4,2
	c-0.8,0-1.5,0.7-1.4,1.6C982.7,175.1,983.3,175.7,984.1,175.7L984.1,175.7z"/>
<path class="st6" d="M990.4,177.4c9.3,3.3,18.5,7.2,27.3,11.8c7.9,4.1,18.3,8.5,23.7,15.9c1.1,1.5,3.7,0,2.6-1.5
	c-5.6-7.5-15.1-11.8-23.2-16.1c-9.5-5-19.4-9.3-29.6-12.9C989.3,173.8,988.5,176.7,990.4,177.4z"/>
<path class="st6" d="M1049,172c-9.9,4.2-18.3,12.4-27.2,18.5c-9.6,6.6-19.5,12.6-29.6,18.3c-1.7,0.9-0.2,3.5,1.5,2.6
	c10.1-5.7,20-11.8,29.6-18.3c8.9-6.1,17.3-14.2,27.2-18.5C1052.3,173.9,1050.8,171.3,1049,172z"/>
<path class="st6" d="M792.8,173.5c20.2,0.3,40.4,0.2,60.7-0.2c1.9,0,1.9-3,0-3c-20.2,0.5-40.4,0.5-60.7,0.2c-0.8,0-1.5,0.7-1.4,1.6
	C791.4,172.8,792,173.4,792.8,173.5z"/>
<path class="st6" d="M794.5,187.1c20.8,0.3,41.6,0.2,62.4-0.3c1.9,0,1.9-3,0-3c-20.8,0.5-41.6,0.6-62.4,0.3
	C792.6,184,792.6,187,794.5,187.1z"/>
<path class="st6" d="M792.2,201.8l59-2.7c1.9-0.1,1.9-3.1,0-3l-59,2.7C790.3,198.8,790.3,201.8,792.2,201.8z"/>
<path class="st6" d="M884.1,159.4h56.1c0.8,0,1.5-0.7,1.4-1.6c0-0.8-0.7-1.4-1.4-1.4h-56.1c-0.8,0-1.5,0.7-1.4,1.6
	C882.7,158.7,883.3,159.3,884.1,159.4z"/>
<path class="st6" d="M937.7,142.2l8.8,8c1,0.9,3.8,2.8,4.4,4c1.3,2.5-0.1,1.9-2.3,2.8c-5.4,2.2-10.4,5.3-14.8,9.2
	c-1.5,1.3,0.7,3.4,2.1,2.1c4-3.6,8.5-6.4,13.4-8.4c1.8-0.7,5.1-1.1,6-3.2c1-2.6-2.2-4.5-3.8-5.9l-11.7-10.7
	C938.4,138.8,936.3,140.9,937.7,142.2L937.7,142.2z"/>
<path class="st1" d="M801.5,259.3h41.3c2.8-16.3,2.8-33,0-49.2h-41.3C806.2,226.2,806.2,243.2,801.5,259.3z"/>
<path class="st1" d="M629.5,222.3h41.3c2.8-16.3,2.8-33,0-49.2h-41.3C634.2,189.2,634.2,206.2,629.5,222.3z"/>
<path class="st1" d="M890.5,114.3h41.3c2.8-16.3,2.8-33,0-49.2h-41.3C895.2,81.2,895.2,98.2,890.5,114.3z"/>
</svg>
