<?xml version="1.0" encoding="utf-8"?>
<!-- Generator: Adobe Illustrator 23.0.0, SVG Export Plug-In . SVG Version: 6.00 Build 0)  -->
<svg version="1.1" id="b543c902-2711-464d-9f40-b15eb324e31e"
	 xmlns="http://www.w3.org/2000/svg" xmlns:xlink="http://www.w3.org/1999/xlink" x="0px" y="0px" viewBox="0 0 1038.2 693.3"
	 style="enable-background:new 0 0 1038.2 693.3;" xml:space="preserve">
<style type="text/css">
	.st0{opacity:0.1;fill:#6C63FF;enable-background:new    ;}
	.st1{fill:#FBBEBE;}
	.st2{fill:#464353;}
	.st3{opacity:0.1;enable-background:new    ;}
	.st4{fill:#6C63FF;}
	.st5{opacity:5.000000e-02;enable-background:new    ;}
	.st6{fill:#3F3D56;}
	.st7{opacity:0.1;}
	.st8{fill:#E0E0E0;}
	.st9{fill:#F55F44;}
	.st10{fill:url(#SVGID_1_);}
	.st11{fill:#F5F5F5;}
	.st12{fill:#DBDBDB;}
	.st13{opacity:0.5;}
	.st14{fill:#47E6B1;}
	.st15{opacity:0.5;fill:#4D8AF0;enable-background:new    ;}
	.st16{opacity:0.5;fill:#F55F44;enable-background:new    ;}
	.st17{opacity:0.5;fill:#47E6B1;enable-background:new    ;}
	.st18{opacity:0.15;enable-background:new    ;}
	.st19{fill:#00599C;}
	.st20{fill:#004482;}
	.st21{fill:#659AD2;}
	.st22{fill:#FFFFFF;}
	.st23{fill:#F05133;}
	.st24{fill:url(#path8615_2_);}
	.st25{fill:url(#path8620_2_);}
	.st26{fill:#2F2E41;}
</style>
<title>version control</title>
<path class="st0" d="M607.2,111.4c-64.7-2.3-126.4-23.1-185.2-46S304.9,17.2,241.7,5.1C201.1-2.7,154.6-3.8,121.9,18
	c-31.5,21-41.7,57.1-47.2,90.7c-4.1,25.3-6.5,51.8,4.8,75.5c7.8,16.4,21.7,30.2,31.4,46c33.5,54.7,9.8,122.2-26.5,175.6
	c-17,25.1-36.7,49-49.9,75.7s-19.2,57.3-7.7,84.5c11.4,27,38.5,47.2,67.9,61.5c59.7,28.9,130,37.2,198.6,41.9
	c151.8,10.4,304.5,5.9,456.7,1.4c56.3-1.7,112.9-3.4,168.3-12.1c30.8-4.8,62.6-12.5,84.9-31c28.4-23.5,35.4-63.4,16.4-92.9
	c-31.9-49.5-120-61.8-142.3-114.9c-12.3-29.2,0.3-61.8,18.2-88.9c38.2-58.2,102.3-109.2,105.7-175.7c2.3-45.7-28.5-91.4-76.1-113
	C875.1,19.6,805.8,22.5,769,60C731,98.5,664.4,113.4,607.2,111.4z"/>
<path class="st1" d="M125,649.5c-2.1-4.8-4.1-10.3-2-15.1c1.4-2.8,3.7-5.1,6.6-6.3c2.9-1.2,5.9-1.9,9-2.2c9.7-1.3,19.5-1.4,29.3-0.4
	c0.7,5.6-0.8,11.3-2.1,16.8c-1.2,5-1.8,5.7-7,6C155.5,648.5,125.8,651.3,125,649.5z"/>
<ellipse class="st2" cx="214.1" cy="577.2" rx="143" ry="40"/>
<ellipse class="st3" cx="214.1" cy="577.2" rx="143" ry="40"/>
<path class="st1" d="M239.7,366c-4.9,9.5-13,16.9-22.9,20.8c-5.8,2.1-12,3.3-18.2,3.5c-6.8,0.3-13.7-0.1-20.1-2.5
	c-8.6-3.1-15.7-9.4-21-16.8s-9-15.8-12.2-24.3c-1.7-4.4-3.3-9.1-2.5-13.8c5.1-1.2,10.8-2.9,13.4-7.5c2.3-3.9,1.6-8.6,0.3-13.1
	c-0.4-1.3-0.8-2.5-1.2-3.7c-1-2.9-4.4-8.4-2-10.9c1.5-1.6,7.9-2.4,10.1-3.4c6.8-3.1,13.1-7.7,20.6-9.2c6.5-1.3,13.1-0.1,19.6,1.3
	c0.9,0.1,1.7,0.4,2.4,0.9c0.8,0.7,1.5,1.6,1.8,2.7c1.8,4.5,2.9,9.4,4.4,14.1c1.5,4.9,3.5,9.5,7.2,13c2.9,2.7,6.6,4.4,10.2,6.1
	l8.9,4.1c1.6,0.6,3,1.5,4.2,2.7c1.2,1.6,1.9,3.5,2,5.4C246.3,345.8,244.6,356.5,239.7,366z"/>
<path class="st3" d="M212.2,304c-14.5,15.1-37.4,18.5-55.7,8.3c-0.4-1.3-0.8-2.5-1.2-3.7c-1-2.9-4.4-8.4-2-10.9
	c1.5-1.6,7.9-2.4,10.1-3.4c6.8-3.1,13.1-7.7,20.6-9.2c6.5-1.3,13.1-0.1,19.6,1.3c0.9,0.1,1.7,0.4,2.4,0.9c0.8,0.7,1.5,1.6,1.8,2.7
	C209.7,294.4,210.8,299.4,212.2,304z"/>
<circle class="st1" cx="179.1" cy="270.2" r="46"/>
<path class="st4" d="M319.2,419.4l-3.8-22.9c-1.9-11.5-3.9-23.2-9.2-33.5c-3.5-6.8-9.1-13.2-16.6-14.6c-1.5-0.1-2.9-0.5-4.3-1
	c-2.2-1.1-3.4-3.4-5.1-5.2c-4.4-4.5-11.5-4.6-17.3-6.9c-5.2-2-9.4-5.9-14.1-8.8s-10.5-5-15.8-3.1c-0.8,9-1.7,18.1-5.5,26.3
	c-9.2,19.7-32.5,28.2-52.2,19c-2.5-1.2-4.9-2.6-7.1-4.2c-8.9-6.7-14.6-17.1-17.3-27.9c-0.6-2.6-1.4-5.7-3.8-6.9
	c-2.6-1.3-5.8,0.3-8,2.2c-4,3.6-7.3,8.7-12.5,9.9c-1.9,0.4-4,0.4-5.6,1.5c-1.1,1-1.9,2.1-2.6,3.4c-2.3,3.3-6.2,5.2-10.2,5.1
	c-1.8-0.1-4-0.5-5.3,0.8c-0.9,1-1,2.6-2,3.5c-1.4,1.3-3.5,0.7-5.4,0.6c-3.6-0.1-6.9,2.1-8.9,5s-3,6.4-4,9.9
	c10.9,24.3,20.9,48.7,31.9,73c0.5,0.9,0.8,1.9,0.8,3c-0.2,1.1-0.7,2.1-1.4,3c-5.4,8.6-5.2,19.4-4.6,29.6s1.3,20.8-3.2,29.9
	c-1.2,2.5-2.8,4.8-4,7.3c-2.7,5.6-3.7,23.7-2.1,29.7h226.1c-4.3-11.8-2.7-35.6-1.8-48.2c0.6-8.8-1-17.6-1.7-26.4
	C321.1,454.4,322.2,437.4,319.2,419.4z"/>
<path class="st1" d="M65.4,445.6c-0.4,2.9-0.4,5.8-0.1,8.7l2.9,41.3c0.3,3.9,0.5,7.8,0.9,11.7c0.7,7.5,1.7,15,3,22.5
	c0.1,2.2,1.9,3.9,4.1,3.9c12.6,2.7,25.7,2.6,38.6,1.8c19.7-1.1,39.4-3.6,59.1-3.2c5.1,0.1,11,0,14.1-4s1.3-10.5-2.7-13.7
	s-9.5-4-14.6-4c-6.8-0.1-13.7,0.9-20.5,0.5c-6.3-0.4-12.4-1.9-18.4-3.4l-17-4.2c0.6-5.2,2.6-10,4.5-14.9c3.3-8.7,6.5-17.6,6.5-26.9
	s-3.4-19.1-11.1-24.4c-6.3-4.4-14.3-5.2-21.9-5c-5.6,0.2-15.1-1.2-20.2,1C68.4,435.1,66.1,441.7,65.4,445.6z"/>
<path class="st2" d="M330.8,540c3.3-1.3,7-0.8,10.6-0.3c11.5,1.6,23.2,3.2,33.8,7.8c5,2.1,9.8,5,13.1,9.2c3,3.8,4.8,8.4,6.4,13
	l3.8,10.5c1.5,4,2.9,8.1,3.4,12.3c1.2,12.6-7.4,24.5-18.2,31c-10.8,6.5-23.6,8.9-36,11.3c-12.4,2.4-24.9,5.1-37.3,8
	c-5.8,1.5-11.6,2.6-17.5,3.5c-13.2,1.5-27.1-0.7-39.7,3.7c-5,1.8-9.9,4.3-15.1,5.6c-3.4,0.7-6.9,1.3-10.4,1.6l-23.8,2.7
	c-4.8,0.6-9.7,1-14.6,1.1c-10.4,0-20.6-2.5-30.7-4.9c-1.1-0.2-2.1-0.6-3-1.2c-1.6-1.3-1.9-3.5-2.2-5.5c-1-8.9-1.9-17.9-2.7-26.8
	c-0.2-2.9-0.4-6.1,1.2-8.5c2-3,5.9-3.9,9.5-4.5c15.1-2.5,30.4-3.5,45.7-3.2c5.8-5.8,15.4-5.8,23-9c2.8-1.3,5.5-2.8,8.1-4.4
	c13.6-7.9,28.8-12.7,44.5-14.1c3.1-0.1,6.1-0.5,9.1-1.3c5.9-1.8,11.3-6.8,17.3-5.6c0.8-2.1,1.3-4.8,3-6.3c0.9-0.7,1.9-1.2,2.7-2
	c1.7-1.7,1.8-4.3,1.6-6.7s-0.8-4.8-0.2-7.1c0.3-0.9,0.6-1.7,1.1-2.5C320.2,542.2,324.8,539.5,330.8,540z"/>
<path class="st5" d="M330.8,540c3.3-1.3,7-0.8,10.6-0.3c11.5,1.6,23.2,3.2,33.8,7.8c5,2.1,9.8,5,13.1,9.2c3,3.8,4.8,8.4,6.4,13
	l3.8,10.5c1.5,4,2.9,8.1,3.4,12.3c1.2,12.6-7.4,24.5-18.2,31c-10.8,6.5-23.6,8.9-36,11.3c-12.4,2.4-24.9,5.1-37.3,8
	c-5.8,1.5-11.6,2.6-17.5,3.5c-13.2,1.5-27.1-0.7-39.7,3.7c-5,1.8-9.9,4.3-15.1,5.6c-3.4,0.7-6.9,1.3-10.4,1.6l-23.8,2.7
	c-4.8,0.6-9.7,1-14.6,1.1c-10.4,0-20.6-2.5-30.7-4.9c-1.1-0.2-2.1-0.6-3-1.2c-1.6-1.3-1.9-3.5-2.2-5.5c-1-8.9-1.9-17.9-2.7-26.8
	c-0.2-2.9-0.4-6.1,1.2-8.5c2-3,5.9-3.9,9.5-4.5c15.1-2.5,30.4-3.5,45.7-3.2c5.8-5.8,15.4-5.8,23-9c2.8-1.3,5.5-2.8,8.1-4.4
	c13.6-7.9,28.8-12.7,44.5-14.1c3.1-0.1,6.1-0.5,9.1-1.3c5.9-1.8,11.3-6.8,17.3-5.6c0.8-2.1,1.3-4.8,3-6.3c0.9-0.7,1.9-1.2,2.7-2
	c1.7-1.7,1.8-4.3,1.6-6.7s-0.8-4.8-0.2-7.1c0.3-0.9,0.6-1.7,1.1-2.5C320.2,542.2,324.8,539.5,330.8,540z"/>
<path class="st6" d="M134.2,655.7c-6.2,7.2-11.6,9.7-21.3,9.5c-6-0.1-11.9-0.5-17.9-0.9c-4.1-0.4-8.2-0.6-12.2-0.6
	c-12.3,0.5-24.3,6.1-36.6,5.1c-1.8-0.1-3.6-0.5-5.4-1c-2.8-0.8-5.3-2.3-7.3-4.4c-2.4-2.7-3.5-6.2-4.1-9.7
	c-3.3-17.9,5.7-37.5,21.5-46.6c2.1-1.3,4.4-2.2,6.8-2.4c2.4,0,4.8,0.5,6.9,1.5l0.1,0.1c6.4,2.6,12.2,6.5,17.1,11.4
	c0.7,0.9,1.6,1.6,2.6,2.1c1,0.4,2,0.6,3.1,0.6l13.1,0.8c2.2,0.1,4.4,0.4,6.6,0.9c2.4,0.8,4.7,1.8,6.9,3c7.1,3.2,14.9,4,22.6,5.2
	c0.7,0,1.4,0.3,2,0.8c0.3,0.4,0.5,0.8,0.6,1.3C141.7,640.6,139.7,649.3,134.2,655.7z"/>
<path class="st3" d="M64.9,606.3c-5.1,4.9-9.5,10.4-13.1,16.4c-5.8,10-9.5,21.1-10.7,32.5c-0.5,4.2-0.5,8.4-0.1,12.6
	c-2.8-0.8-5.3-2.3-7.3-4.4c-2.4-2.7-3.5-6.2-4.1-9.7c-3.3-17.9,5.7-37.5,21.5-46.6c2.1-1.3,4.4-2.2,6.8-2.4c2.4,0,4.8,0.5,6.9,1.5
	L64.9,606.3z"/>
<path class="st1" d="M319.3,631.2c7.4-0.2,15.6-0.6,21,4.4c5.2,4.7,5.8,12.4,6.2,19.3l0.4,8.1c0.1,2.5,0.2,5-0.8,7.3
	c-1.8,4-6.6,5.9-11,5.7s-8.5-2.2-12.5-3.9c-10.9-4.7-22.3-8.3-34-10.7c0.4-5.6,1-11.1,1.9-16.7c0.6-3.8,0.7-10.2,3.3-13.4
	c2.7-3.4,6.2-1.5,9.9-0.9C308.9,631.1,314.1,631.4,319.3,631.2z"/>
<path class="st2" d="M125.1,550.1c0,1-1.6,0-1.7-1.1c-1.1-8.1-7.5-14.8-15-18s-16-3.4-24.1-2.6c-12.3,1.2-26,5.8-30.5,17.3
	c-1.1,2.7-1.5,5.6-2.8,8.2c-1.4,2.8-3.8,5.1-5.3,7.8c-2.7,4.7-2.8,10.5-1.8,15.9c2.6,14.3,12.4,26.5,24.2,35s25.7,13.5,39.5,18.1
	c36.5,12,74,21,112,26.8c6.2,0.9,12.4,1.8,18.3,3.8c5.3,1.8,10.2,4.4,15.4,6.5c12,4.8,24.9,6.5,37.7,8.2c2.2,0.3,4.7,0.5,6.3-1
	c2.1-1.9,1.4-5.3,0.8-8.1c-2.2-10.5-0.3-21.5,5.1-30.8c2.1-3.6,4.9-7.3,4.5-11.5c-0.5-4.9-5.3-8.3-10.1-9.1s-9.7,0.4-14.6,1
	c-1.7,0.2-3.5,0.4-5-0.5c-0.7-0.5-1.4-1.1-1.9-1.7c-6.8-6.6-17.2-8-25.5-3.6c-1.8,1-4.5-1.2-6.4-2.1l-21-9.5
	c-24.2-10.9-48.4-21.9-74-28.8c-2-0.4-4-1.2-5.7-2.4c-1.3-1-2.2-2.4-3.4-3.5c-2.6-2.4-6.1-3.4-9.2-5.1S124.4,553.5,125.1,550.1z"/>
<path class="st6" d="M449.3,680.8c-3.4,6.2-9.9,10.1-16.9,11.7c-1.8,0.4-3.5,0.7-5.3,0.8c-8.9,0.5-17.6-1.9-26.1-4.3l-11.6-3.3
	c-2-0.6-4-1.1-6.1-1.4c-2.8-0.2-5.6-0.1-8.4,0.3c-13.7,1.3-27.5,0.7-41-1.8c-1.1-0.1-2.2-0.5-3.2-1.1c-0.8-0.8-1.6-1.7-2.2-2.7
	c-3.1-3.8-6.5-6-2.8-11c2.2-2.9,6.1-4.3,7.8-7.7s0.6-8.1-0.4-11.5c-1.3-4.8-5.8-6.8-7.4-11.2c-1.2-3.3,0.8-7.1,3.8-8.9
	s6.7-1.9,10.2-1.5c3.5,0.5,6.9,1.4,10.4,1.7c10.3,0.8,20.8-4.5,30.6-1.5c2.2,0.7,4.2,1.7,6.4,2.3c4.3,1,8.8,0.6,12.8-1.1
	c1.4-0.5,2.8-1.2,4.3-1.8c2.7-1.4,5.6-2.4,8.5-3.1c9.6-1.7,18.5,5,25.8,11.5c2.5,2.1,4.7,4.5,6.5,7.1c2,3.1,3.1,6.8,4,10.3
	C451.7,661.8,453.9,672.3,449.3,680.8z"/>
<path class="st3" d="M449.3,680.8c-3.4,6.2-9.9,10.1-16.9,11.7c2.7-5.3,4-11.2,3.5-17.2c-0.6-9.5-4.8-18.5-10.1-26.4
	c-3.3-4.9-7-9.4-11.1-13.6c-3.2-3.2-7.1-5.7-10.5-8.7c2.7-1.4,5.6-2.4,8.5-3.1c9.6-1.7,18.5,5,25.8,11.5c2.5,2.1,4.7,4.5,6.5,7.1
	c2,3.1,3.1,6.8,4,10.3C451.7,661.8,453.9,672.3,449.3,680.8z"/>
<path class="st4" d="M82.1,372.3c-1,1-1.7,2.2-2.2,3.5C71.8,394,67,413.5,65.8,433.4c0,1-0.2,1.9-0.6,2.8c-0.4,0.6-0.9,1.1-1.5,1.6
	c-2,2.3-1.7,5.8,0.7,7.8c0.1,0.1,0.2,0.2,0.3,0.2c1.6-3.1,5.6-4.1,9.1-4.4c16.8-1.3,33.2,6.5,50.1,5.9c-1.2-4.1-2.9-8.1-3.9-12.2
	c-4.3-18.5,6.4-38.6-0.1-56.4c-1.3-3.6-3.5-7.1-6.9-8.6c-1.4-0.6-2.9-1-4.4-1.2c-4.3-0.8-12.7-4.1-16.9-2.7
	c-1.5,0.5-2.1,1.9-3.4,2.8C86.2,370.2,83.7,370.6,82.1,372.3z"/>
<path class="st6" d="M125.5,408.7h207.1c4.4,0,8,3.6,8,8v126.1c0,4.4-3.6,8-8,8H125.5c-4.4,0-8-3.6-8-8V416.6
	C117.6,412.2,121.1,408.7,125.5,408.7z"/>
<g class="st7">
	<path class="st4" d="M86.4,299.4c0,0-74.8-31.4-84.6,25.3c0,0-5.1,8.8,2,16.1c0,0,1.5-3.9,8.8,0.1c2.6,1.4,5.3,2.5,8.2,3.3
		c3.8,1.1,7.9,0.8,11.6-0.6l0,0c0,0,24.6-1.3,45.3-33.5c0,0,8.9-5.5,9.3-7.5l-14.8,1c0,0,1.1,10.9-5,17.4c0,0,5.4-16.8,2.8-17.3
		c-0.5-0.1-7.8,0.9-7.8,0.9s1.9,18.9-8,28.6c0,0,9.2-19.2,5.2-28.3L48.5,307c0,0,3,19.9-7.8,31.4c0,0,8.9-20.4,5.5-30.8l-10.5,3.5
		c0,0,2.5,19.4-6.5,29c0,0,7.9-24.6,4.2-28c0,0-9.4,3.8-11.4,6c0,0,1.5,14-4.3,19c0,0,3.5-17,1.8-17.7c0,0-10.9,8.2-14.3,15.4
		c0,0,4.2-10.9,12.9-17c0,0-7.3-1.2-13,1.8c0,0,3.8-7.2,15.7-3.8c0,0,8.8-6.1,10.6-6c0,0-11.2-5-19.3-4.4c0,0,8.7-5,22.1,3.4
		l10.4-3.8c0,0-14.5-7.4-21.8-7.4c0,0,9.7-3.7,24.5,6.7l10.7-2.2c0,0-12-7.4-20.1-9.1c0,0,9.7-1.5,23.2,8.5l7.3-0.6
		c0,0-8.9-5.2-11.5-6.5s-2.6-2.1-2.6-2.1c6.4,1.1,12.3,3.9,17.1,8.2C71.1,300.6,86.3,300.3,86.4,299.4z"/>
</g>
<g class="st7">
	<path class="st4" d="M83.6,243c0,0-26.5-61.3-64.6-33.2c0,0-8.1,2.3-8,10.7c0,0,3.1-1.5,5.1,5.1c0.7,2.3,1.7,4.5,3,6.6
		c1.7,2.8,4.2,5,7.3,6.3l0,0c0,0,15.4,13.2,46,5.9c0,0,8.4,1.8,9.8,0.8l-9.4-7.9c0,0-5.5,7.1-12.9,7.4c0,0,12.8-6.9,11.6-8.7
		c-0.3-0.4-5.1-3.9-5.1-3.9s-9.6,12.3-21,12.5c0,0,16.4-6.2,19.2-13.9l-7.7-5c0,0-9.7,13.5-22.7,14.2c0,0,16.9-7,20.8-15.2l-8.2-3.9
		c0,0-9.6,13-20.4,13.5c0,0,18.7-10.1,18.4-14.3c0,0-7.8-3.1-10.2-2.9c0,0-7.1,9.1-13.4,8.9c0,0,11.8-8.1,11.2-9.5
		c0,0-11.2-1.3-17.2,1c0,0,8.7-4.1,17.3-2.7c0,0-3.7-4.9-8.8-6.3c0,0,6.4-2.1,11.5,6.6c0,0,8.7,1.4,9.7,2.4c0,0-3.8-9.4-9-13.6
		c0,0,8,2,11.2,14.6l8.4,3.7c0,0-4.4-12.7-8.7-16.8c0,0,7.9,3.3,10.8,17.9l7.6,4.8c0,0-2.9-11.2-6.8-16.8c0,0,6.6,4.6,8.9,18.3
		l4.7,3.8c0,0-2.3-8.1-3.2-10.4s-0.3-2.7-0.3-2.7c3.2,4.3,5.1,9.4,5.5,14.7C73.8,235.1,83,243.5,83.6,243z"/>
</g>
<ellipse transform="matrix(0.5067 -0.8621 0.8621 0.5067 -114.7098 474.4886)" class="st8" cx="357.3" cy="337.5" rx="18.7" ry="3.1"/>
<ellipse transform="matrix(0.505 -0.8631 0.8631 0.505 -80.0876 758.5208)" class="st8" cx="621.3" cy="449.1" rx="18.6" ry="2.1"/>
<polygon class="st9" points="472.1,398.1 481.9,404.9 455,432.7 445.2,425.8 "/>
<polygon class="st5" points="473.3,437.7 459.4,434.9 469.1,399.9 483,402.7 "/>
<polygon class="st9" points="473.3,437.7 460.9,435.2 470.6,400.2 483,402.7 "/>
<linearGradient id="SVGID_1_" gradientUnits="userSpaceOnUse" x1="8.8433" y1="2964.342" x2="8.8433" y2="2907.8433" gradientTransform="matrix(0.8958 0.4445 -0.4445 0.8958 1786.4941 -2240.7778)">
	<stop  offset="0" style="stop-color:#808080;stop-opacity:0.25"/>
	<stop  offset="0.5351" style="stop-color:#808080;stop-opacity:0.12"/>
	<stop  offset="1" style="stop-color:#808080;stop-opacity:0.1"/>
</linearGradient>
<polygon class="st10" points="347.5,354.4 367.2,320.6 631.2,432.1 611.5,465.9 "/>
<path class="st11" d="M612,465.1C606.8,463,344.2,352,348,353.6c14.6-18.9,18.8-32.2,18.8-32.2l264,111.5
	C630.8,432.9,621.5,446.7,612,465.1z"/>
<polygon class="st5" points="482.2,370.2 503.9,379.3 485.2,411.6 463.4,402.4 "/>
<polygon class="st9" points="483.1,370.6 503,378.9 484.2,411.2 464.3,402.8 "/>
<polygon class="st5" points="486,371.8 499.2,377.3 480.4,409.6 467.2,404 "/>
<polygon class="st9" points="486.9,372.2 498.3,376.9 479.5,409.2 468.1,404.4 "/>
<ellipse class="st12" cx="496.7" cy="479.4" rx="1.8" ry="1.5"/>
<g class="st13">
	<rect x="357.1" y="437.4" class="st14" width="1.8" height="8.7"/>
	<rect x="352.9" y="441" class="st14" width="10.2" height="1.5"/>
</g>
<g class="st13">
	<rect x="812.3" y="328.7" class="st14" width="1.8" height="8.7"/>
	<rect x="808.1" y="332.3" class="st14" width="10.2" height="1.5"/>
</g>
<g class="st13">
	<rect x="367.9" y="220.6" class="st14" width="1.8" height="8.7"/>
	<rect x="363.7" y="224.2" class="st14" width="10.2" height="1.5"/>
</g>
<g class="st13">
	<rect x="758.1" y="207.3" class="st14" width="1.8" height="8.7"/>
	<rect x="753.9" y="210.9" class="st14" width="10.2" height="1.5"/>
</g>
<path class="st15" d="M346.8,320.3c-1-0.4-1.6-1.4-1.2-2.3c0-0.1,0-0.1,0-0.2l0,0c0-0.5-0.4-1-1-1c-0.4,0-0.7,0.1-1,0.4l0,0
	c0,0.1-0.1,0.1-0.1,0.2c-0.4,0.9-1.6,1.3-2.7,1c-0.1,0-0.2,0-0.2,0l0,0c-0.6,0-1.1,0.4-1.2,0.9c0,0.3,0.1,0.6,0.4,0.8l0,0
	c0.1,0,0.1,0.1,0.2,0.1c1,0.4,1.6,1.4,1.2,2.3c0,0.1,0,0.1,0,0.2l0,0c0,0.5,0.4,1,1,1c0.4,0,0.7-0.1,1-0.4l0,0
	c0-0.1,0.1-0.1,0.1-0.2c0.4-0.9,1.6-1.3,2.7-1c0.1,0,0.2,0,0.2,0l0,0c0.6,0,1.1-0.4,1.2-0.9c0-0.3-0.1-0.6-0.4-0.8l0,0
	C347,320.3,346.9,320.3,346.8,320.3z"/>
<path class="st15" d="M450.4,219.3c-1-0.4-1.6-1.4-1.2-2.3c0-0.1,0-0.1,0-0.2l0,0c0-0.5-0.4-1-1-1c-0.4,0-0.7,0.1-1,0.4l0,0
	c0,0.1-0.1,0.1-0.1,0.2c-0.4,0.9-1.6,1.3-2.7,1c-0.1,0-0.2,0-0.2,0l0,0c-0.6,0-1.1,0.4-1.2,0.9c0,0.3,0.1,0.6,0.4,0.8l0,0
	c0.1,0,0.1,0.1,0.2,0.1c1,0.4,1.6,1.4,1.2,2.3c0,0.1,0,0.1,0,0.2l0,0c0,0.5,0.4,1,1,1c0.4,0,0.7-0.1,1-0.4l0,0
	c0-0.1,0.1-0.1,0.1-0.2c0.4-0.9,1.6-1.3,2.7-1c0.1,0,0.2,0,0.2,0l0,0c0.6,0,1.1-0.4,1.2-0.9c0-0.3-0.1-0.6-0.4-0.8l0,0
	C450.5,219.4,450.4,219.4,450.4,219.3z"/>
<path class="st15" d="M576.8,481.2c-1-0.4-1.6-1.4-1.2-2.3c0-0.1,0-0.1,0-0.2l0,0c0-0.5-0.4-1-1-1c-0.4,0-0.7,0.1-1,0.4l0,0
	c0,0.1-0.1,0.1-0.1,0.2c-0.4,0.9-1.6,1.3-2.7,1c-0.1,0-0.2,0-0.2,0l0,0c-0.6,0-1.1,0.4-1.2,0.9c0,0.3,0.1,0.6,0.4,0.8l0,0
	c0.1,0,0.1,0.1,0.2,0.1c1,0.4,1.6,1.4,1.2,2.3c0,0.1,0,0.1,0,0.2l0,0c0,0.5,0.4,1,1,1c0.4,0,0.7-0.1,1-0.4l0,0
	c0-0.1,0.1-0.1,0.1-0.2c0.4-0.9,1.6-1.3,2.7-1c0.1,0,0.2,0,0.2,0l0,0c0.6,0,1.1-0.4,1.2-0.9c0-0.3-0.1-0.6-0.4-0.8l0,0
	C576.9,481.2,576.9,481.2,576.8,481.2z"/>
<ellipse class="st16" cx="796.6" cy="417.9" rx="3.6" ry="3.1"/>
<ellipse class="st15" cx="717.1" cy="437.4" rx="3.6" ry="3.1"/>
<ellipse class="st17" cx="401.7" cy="467.6" rx="3.6" ry="3.1"/>
<ellipse class="st16" cx="587.1" cy="193.5" rx="3.6" ry="3.1"/>
<path class="st4" d="M462.8,373.6L448.3,392c0,0,4.8,19,111.4,18.4s115-18.4,115-18.4l-19.9-24.6L594,332.1L462.8,373.6z"/>
<path class="st18" d="M462.8,373.6L448.3,392c0,0,4.8,19,111.4,18.4s115-18.4,115-18.4l-19.9-24.6L594,332.1L462.8,373.6z"/>
<polygon class="st4" points="770.1,305.2 580.5,376.4 349.3,305.2 561.2,223.2 665.2,264 669,265.5 "/>
<polygon class="st18" points="770.1,305.2 580.5,376.4 349.3,305.2 561.2,223.2 665.2,264 669,265.5 "/>
<polygon class="st11" points="672.9,322.3 669.3,322.4 665.2,264 669,265.5 "/>
<path class="st4" d="M465.2,304.9L448.3,392c0,0,121-33.3,226.4,0L659,299.8C659,299.8,517.6,284.9,465.2,304.9z"/>
<ellipse class="st11" cx="672.6" cy="329.8" rx="17.5" ry="10.2"/>
<g>
	<path class="st19" d="M327.3,440.4c0.3-0.2,0.5-0.5,0.6-0.8l3.6-9.8c0.1-0.3,0.1-0.6,0.1-1l-11.9,2.2L327.3,440.4z"/>
	<path class="st20" d="M316.3,442.7l10.1-1.9c0.3-0.1,0.6-0.2,0.9-0.4l-7.7-9.3l-11.9,2.2c0.1,0.3,0.2,0.7,0.4,0.9l6.6,7.9
		C314.9,442.5,315.7,442.8,316.3,442.7z"/>
	<path class="st21" d="M331.5,428.9c-0.1-0.3-0.2-0.7-0.4-0.9l-6.6-7.9c-0.4-0.5-1.2-0.7-1.7-0.6l-10.1,1.9
		c-0.6,0.1-1.2,0.7-1.4,1.2l-3.6,9.8c-0.1,0.3-0.1,0.6-0.1,1l11.9-2.2L331.5,428.9z"/>
	<g>
		<path class="st22" d="M317.1,437.9c-3.7-1.3-5.6-5.5-4.2-9.3s5.5-5.7,9.2-4.4c2.4,0.9,4.1,3,4.6,5.5l-3.5,0.7
			c-0.2-1.3-1.1-2.3-2.3-2.8c-1.9-0.7-3.9,0.3-4.6,2.2c-0.7,1.9,0.3,4,2.1,4.6c1.2,0.4,2.6,0.2,3.5-0.6l2.3,2.8
			C322.2,438.3,319.5,438.8,317.1,437.9z"/>
	</g>
	<g>
		<polygon class="st22" points="326.4,433.1 325.7,432.8 325.9,432.1 325.2,431.8 324.9,432.6 324.2,432.3 323.9,433.1 324.6,433.3 
			324.4,434.1 325.1,434.4 325.4,433.6 326.1,433.9 		"/>
	</g>
	<g>
		<polygon class="st22" points="329.2,434.1 328.5,433.9 328.7,433.1 328,432.8 327.7,433.6 327,433.3 326.7,434.1 327.4,434.3 
			327.2,435.1 327.9,435.4 328.2,434.6 328.9,434.9 		"/>
	</g>
</g>
<g>
	<g>
		<path class="st23" d="M157.9,462.3l-11.1-10.6c-0.6-0.6-1.7-0.6-2.3,0l-2.3,2.2l2.9,2.8c0.7-0.2,1.5-0.1,2,0.4s0.7,1.3,0.5,1.9
			l2.8,2.7c0.7-0.2,1.5-0.1,2,0.4c0.8,0.7,0.8,1.9,0,2.6s-2,0.7-2.8,0c-0.6-0.5-0.7-1.3-0.4-2l-2.6-2.5v6.6c0.2,0.1,0.4,0.2,0.5,0.4
			c0.8,0.7,0.8,1.9,0,2.6s-2,0.7-2.8,0s-0.8-1.9,0-2.6c0.2-0.2,0.4-0.3,0.6-0.4v-6.7c-0.2-0.1-0.4-0.2-0.6-0.4
			c-0.6-0.5-0.7-1.4-0.4-2L141,455l-7.6,7.3c-0.6,0.6-0.6,1.6,0,2.2l11.1,10.6c0.6,0.6,1.7,0.6,2.3,0l11.1-10.5
			C158.6,463.9,158.6,462.9,157.9,462.3z"/>
	</g>
</g>
<g>
	<g id="layer1_1_" transform="translate(-473.36088,-251.72485)">
		<g id="g1894_1_" transform="translate(428.42338,184.2561)">
			
				<linearGradient id="path8615_2_" gradientUnits="userSpaceOnUse" x1="262.9986" y1="1211.6343" x2="273.9151" y2="1222.5872" gradientTransform="matrix(1 0 0 1 -81.595 -721.6351)">
				<stop  offset="0" style="stop-color:#387EB8"/>
				<stop  offset="1" style="stop-color:#366994"/>
			</linearGradient>
			<path id="path8615_1_" class="st24" d="M190.3,488.2c-5.8,0-5.4,2.4-5.4,2.4v2.4h5.5v0.7h-7.7c0,0-3.7-0.4-3.7,5.1
				s3.2,5.3,3.2,5.3h1.9v-2.5c0,0-0.1-3,3.2-3s5.5,0,5.5,0s3.1,0,3.1-2.8s0-4.7,0-4.7S196.3,488.2,190.3,488.2z M187.3,489.8
				c0.5,0,1,0.4,1,0.9s-0.4,0.9-1,0.9c-0.5,0-1-0.4-1-0.9C186.3,490.2,186.7,489.8,187.3,489.8z"/>
			
				<linearGradient id="path8620_2_" gradientUnits="userSpaceOnUse" x1="269.7122" y1="1218.2594" x2="281.4802" y2="1229.5337" gradientTransform="matrix(1 0 0 1 -81.595 -721.6351)">
				<stop  offset="0" style="stop-color:#FFE052"/>
				<stop  offset="1" style="stop-color:#FFC331"/>
			</linearGradient>
			<path id="path8620_1_" class="st25" d="M190.5,509.5c5.8,0,5.4-2.4,5.4-2.4v-2.4h-5.5V504h7.7c0,0,3.7,0.4,3.7-5.1
				s-3.2-5.3-3.2-5.3h-1.9v2.5c0,0,0.1,3-3.2,3s-5.5,0-5.5,0s-3.1,0-3.1,2.8s0,4.7,0,4.7S184.4,509.5,190.5,509.5z M193.5,507.8
				c-0.5,0-1-0.4-1-0.9s0.4-0.9,1-0.9c0.5,0,1,0.4,1,0.9S194,507.8,193.5,507.8z"/>
		</g>
	</g>
</g>
<g>
	<path d="M246.4,465.2h-25.7c-1.2,0-2.1,1.1-2.1,2.4v23.7c0,1.3,1,2.4,2.1,2.4h25.7c1.2,0,2.1-1.1,2.1-2.4v-23.7
		C248.5,466.2,247.6,465.2,246.4,465.2z M222.8,481.7l4.3-4.7l-4.3-4.7l2.1-2.4l6.4,7.1l-6.4,7.1L222.8,481.7z M240,484.1h-8.6v-2.4
		h8.6V484.1z"/>
</g>
<path class="st26" d="M233.3,245.1c-0.1-3.2-1.4-6.1-3.6-8.5c0.9-3.1,1.4-6.3,1.3-9.5c-0.7-9.5-7.8-10.8-13.5-16.4
	c-2.4-2.4-1.8-3.8-2.7-7c-1.1-4.2-3.2-7.9-6.3-10.9c-3.6-3.9-7.3-7.7-12.3-9.4c-10.4-3.5-21.1,4.5-32,5.1c-4.8,0.3-9.6-0.9-14.5-0.7
	c-4.8,0.2-10.1,2.2-12,6.6c-0.9,2.1-0.9,4.4-1.7,6.5c-1.7,4-6.2,6.1-9.6,8.9c-7.5,6.3-9.6,17.4-7.4,26.9c0.5,2,1.1,4,1.9,5.8
	c-0.7,4-0.5,8.2,0.5,12.2c2.2,9.5,8.2,17.7,14.7,25c0-3,0.4-5.9,1-8.8c0.1-1,0.4-1.9,1.1-2.7c1.3-1.6,3.8-1.5,5.8-2
	c4.2-1.2,6.8-5.4,8.1-9.6c1.2-4.2,1.4-8.6,2.9-12.8c0.6-2,1.9-3.6,3.6-4.5c1.5-0.4,3.2-0.4,4.7,0c7.7,1.6,15.5,3.5,23.1,1.7
	c2.6-0.6,5.1-1.7,7.8-1.7c6-0.1,10.8,5.4,12.8,11.1c2,5.7,2.1,11.8,3.8,17.7s5.7,11.5,11.8,12.5c0.7,0.2,1.3,0,2-0.3
	c0.3-0.4,0.7-0.9,0.7-1.4l6.1-22.1C232.7,252.9,233.3,249,233.3,245.1z"/>
</svg>
