<?xml version="1.0" encoding="utf-8"?>
<!-- Generator: Adobe Illustrator 23.0.0, SVG Export Plug-In . SVG Version: 6.00 Build 0)  -->
<svg version="1.1" id="f6245ee5-e739-4f07-8284-f5c00440f05d"
	 xmlns="http://www.w3.org/2000/svg" xmlns:xlink="http://www.w3.org/1999/xlink" x="0px" y="0px" viewBox="0 0 871.9 596.6"
	 style="enable-background:new 0 0 871.9 596.6;" xml:space="preserve">
<style type="text/css">
	.st0{fill:url(#SVGID_1_);}
	.st1{fill:#FFFFFF;}
	.st2{fill:#F5F5F5;}
	.st3{fill:url(#SVGID_2_);}
	.st4{fill:url(#SVGID_3_);}
	.st5{fill:url(#SVGID_4_);}
	.st6{fill:#6C63FF;}
	.st7{fill:#E0E0E0;}
	.st8{fill:#1F2765;}
</style>
<title>Search</title>
<linearGradient id="SVGID_1_" gradientUnits="userSpaceOnUse" x1="435.9543" y1="436.7733" x2="435.9543" y2="598" gradientTransform="matrix(1 0 0 -1 0 598)">
	<stop  offset="0" style="stop-color:#808080;stop-opacity:0.25"/>
	<stop  offset="0.5351" style="stop-color:#808080;stop-opacity:0.12"/>
	<stop  offset="1" style="stop-color:#808080;stop-opacity:0.1"/>
</linearGradient>
<rect class="st0" width="871.9" height="161.2"/>
<rect x="5.1" y="5.3" class="st1" width="860.5" height="147.4"/>
<rect x="57.9" y="35.4" class="st2" width="500.2" height="87.7"/>
<linearGradient id="SVGID_2_" gradientUnits="userSpaceOnUse" x1="895.4195" y1="299.2647" x2="895.4195" y2="419.5608" gradientTransform="matrix(1 0 0 -1 -164.0457 446.3)">
	<stop  offset="0" style="stop-color:#B3B3B3;stop-opacity:0.25"/>
	<stop  offset="0.5351" style="stop-color:#B3B3B3;stop-opacity:0.1"/>
	<stop  offset="1" style="stop-color:#B3B3B3;stop-opacity:5.000000e-02"/>
</linearGradient>
<path class="st3" d="M752.2,41c-17.7-18.4-47-19-65.5-1.3c-18.4,17.7-19,47-1.3,65.5c15.6,16.2,40.5,18.9,59.2,6.4l33.5,34.8
	c0.9,0.9,2.3,0.9,3.2,0.1l0,0l8.3-8c0.9-0.9,0.9-2.3,0.1-3.2l-33.5-34.8C769.4,82.2,767.7,57.2,752.2,41z M741.7,96.9
	c-13.2,12.7-34.2,12.3-46.8-0.9s-12.3-34.2,0.9-46.8c13.2-12.7,34.2-12.3,46.8,0.9S754.9,84.3,741.7,96.9L741.7,96.9z"/>
<linearGradient id="SVGID_3_" gradientUnits="userSpaceOnUse" x1="858.2828" y1="376.6566" x2="858.2828" y2="382.4464" gradientTransform="matrix(1 0 0 -1 -164.0457 446.3)">
	<stop  offset="0" style="stop-color:#000000;stop-opacity:0.12"/>
	<stop  offset="0.5513" style="stop-color:#000000;stop-opacity:9.000000e-02"/>
	<stop  offset="1" style="stop-color:#000000;stop-opacity:2.000000e-02"/>
</linearGradient>
<path class="st4" d="M694.2,63.9c-3.7,0-3.7,5.8,0,5.8C698,69.6,698,63.9,694.2,63.9z"/>
<linearGradient id="SVGID_4_" gradientUnits="userSpaceOnUse" x1="884.8759" y1="383.2988" x2="884.8759" y2="401.0072" gradientTransform="matrix(1 0 0 -1 -164.0457 446.3)">
	<stop  offset="0" style="stop-color:#000000;stop-opacity:0.12"/>
	<stop  offset="0.5513" style="stop-color:#000000;stop-opacity:9.000000e-02"/>
	<stop  offset="1" style="stop-color:#000000;stop-opacity:2.000000e-02"/>
</linearGradient>
<path class="st5" d="M720.2,45.3c-9.6-0.3-18.7,4.4-24,12.4c-1.6,2.5,2.9,4.7,4.5,2.2c4-6.3,11.7-10.3,19.9-10.1
	c8.5,0.3,16.2,4.8,20.7,12c1.6,2.6,5.7,0.2,4.2-2.4C740.4,51.2,730.6,45.5,720.2,45.3z"/>
<path class="st6" d="M752.2,35.9c-17.7-18.4-47-19-65.5-1.3c-18.4,17.7-19,47-1.3,65.5c15.6,16.2,40.5,18.9,59.2,6.4l33.5,34.8
	c0.9,0.9,2.3,0.9,3.2,0.1l8.3-8c0.9-0.9,0.9-2.3,0.1-3.2l-33.5-34.8C769.4,77.1,767.7,52.1,752.2,35.9z M741.7,91.9
	c-13.2,12.7-34.2,12.3-46.8-0.9s-12.3-34.2,0.9-46.8C709,31.4,730,31.8,742.7,45C755.3,58.2,754.9,79.2,741.7,91.9L741.7,91.9z"/>
<path class="st6" d="M694.2,58.8c-3.7,0-3.7,5.8,0,5.8C698,64.6,698,58.8,694.2,58.8z"/>
<path class="st6" d="M720.2,40.2c-9.6-0.3-18.7,4.4-24,12.4c-1.6,2.5,2.9,4.7,4.5,2.2c4-6.3,11.7-10.3,19.9-10.1
	c8.5,0.3,16.2,4.8,20.7,12c1.6,2.6,5.7,0.2,4.2-2.4C740.4,46.1,730.6,40.4,720.2,40.2z"/>
<rect x="4.9" y="240.6" class="st7" width="867" height="59"/>
<rect x="4.9" y="339.6" class="st7" width="867" height="59"/>
<rect x="4.9" y="438.6" class="st7" width="867" height="59"/>
<rect x="4.9" y="537.6" class="st7" width="867" height="59"/>
<g>
	<g>
		<path class="st8" d="M96.5,61.7v25.2h-1.9V61.7H96.5z"/>
		<path class="st8" d="M103,73.4c0-1.6,0-3.1,0-4.5h1.8c0.1,0.6,0.1,2.9,0.1,3.4c0.8-1.8,2.3-3.9,6-3.9c3.2,0,6,1.8,6,6.8v11.7H115
			V75.5c0-3.2-1.3-5.3-4.5-5.3c-4.3,0-5.8,3.6-5.8,7.5v9.2H103V73.4z"/>
		<path class="st8" d="M120,68.9h3.3v-5.6h1.8v5.6h4.3v1.7h-4.3v11.7c0,2,0.4,3.2,2.2,3.2c0.5,0,1.3,0,1.9-0.2v1.6
			c-0.6,0.3-1.5,0.3-2.2,0.3c-2.3,0-3.6-1.2-3.6-4V70.6H120V68.9z"/>
		<path class="st8" d="M133.5,78.1c0,4.6,2.4,7.5,5.8,7.5c3.4,0,4.5-1.9,5.2-3.4h1.8c-0.8,2.4-2.7,5.1-7.1,5.1
			c-5.5,0-7.6-4.7-7.6-9.3c0-5.1,2.6-9.6,7.8-9.6c5.5,0,7.3,4.8,7.3,8.2c0,0.5,0,1,0,1.5H133.5z M144.9,76.5c0-3.6-2-6.4-5.5-6.4
			c-3.7,0-5.4,2.6-5.8,6.4H144.9z"/>
		<path class="st8" d="M151.2,73.8c0-3,0-4.3,0-4.9h1.8c0,0.6,0.1,1.7,0.1,4c1-2.7,3.3-4.3,6.3-4.5v1.9c-3.7,0.3-6.3,2.8-6.3,7.1
			v9.4h-1.8V73.8z"/>
		<path class="st8" d="M162.8,73.4c0-1.6,0-3.1,0-4.5h1.8c0.1,0.6,0.1,2.9,0.1,3.4c0.8-1.8,2.3-3.9,6-3.9c3.2,0,6,1.8,6,6.8v11.7
			h-1.8V75.5c0-3.2-1.3-5.3-4.5-5.3c-4.3,0-5.8,3.6-5.8,7.5v9.2h-1.8V73.4z"/>
		<path class="st8" d="M182.5,81.9c0.6,2.3,2.3,3.7,5.1,3.7c3.2,0,4.5-1.5,4.5-3.5c0-2.1-0.9-3.1-4.9-4c-4.6-1.1-5.8-2.5-5.8-4.9
			c0-2.5,1.9-4.8,5.9-4.8s6,2.5,6.3,5h-1.8c-0.3-1.5-1.5-3.4-4.6-3.4c-3.1,0-4,1.5-4,3c0,1.7,0.9,2.5,4.4,3.3
			c5.1,1.2,6.3,2.9,6.3,5.6c0,3.3-2.7,5.3-6.4,5.3c-4.1,0-6.4-2.2-6.9-5.4H182.5z"/>
		<path class="st8" d="M200.3,60.4v11.6c1-1.9,2.8-3.5,5.9-3.5c2.6,0,6.1,1.3,6.1,7v11.4h-1.8V75.8c0-3.6-1.6-5.6-4.6-5.6
			c-3.6,0-5.6,2.2-5.6,6.6v10h-1.8V60.4H200.3z"/>
		<path class="st8" d="M218.3,60.4h1.8v3.5h-1.8V60.4z M218.3,68.9h1.8v18h-1.8V68.9z"/>
		<path class="st8" d="M227.8,84.2v9.9H226V73.3c0-1.5,0-3.1,0-4.4h1.8c0.1,0.7,0.1,1.8,0.1,3.2c1.1-2.2,3.1-3.7,6.3-3.7
			c4.2,0,7.2,3.6,7.2,9c0,6.5-3.5,9.9-7.8,9.9C230.3,87.3,228.7,85.9,227.8,84.2z M239.4,77.5c0-4.2-2-7.3-5.6-7.3
			c-4.4,0-6.2,2.7-6.2,7.6c0,4.8,1.4,7.8,5.9,7.8C237.3,85.6,239.4,82.5,239.4,77.5z"/>
	</g>
</g>
</svg>
